<svg id="Capa_1" enable-background="new 0 0 512 512" height="512" viewBox="0 0 512 512" width="512" xmlns="http://www.w3.org/2000/svg"><g><path d="m286.347 91.274c-7.559-1.274-14.824 3.281-16.934 10.635-5.83 20.244-24.814 43.012-43.184 64.091-23.159 26.514-45.015 51.563-45.015 75 0 49.629 40.371 91 90 91s90-41.371 90-91v-8.789l4.395 4.395c5.859 5.859 15.352 5.859 21.211 0s5.859-15.352 0-21.211l-25.605-25.605v-8.79c.001-44.033-31.494-82.343-74.868-89.726z"/><path d="m62.798 262.709c1.566 3.116 29.54 56.508 127.355 67.2-23.78-21.942-38.937-54.079-38.937-88.909 0-34.717 25.459-64.867 52.427-95.731 15.469-17.769 32.959-37.837 36.943-51.665 5.493-19.146 23.276-32.549 43.228-32.549 30.386 2.606 57.504 17.428 76.926 39.238-2.524-55.668-48.245-100.293-104.524-100.293h-30c-73.779 0-135 59.731-135 135v61c0 19.351-18.501 42.231-25.62 49.409-4.542 4.57-5.669 11.543-2.798 17.3z"/><path d="m111.3 407.449c95.907 19.852 193.945 19.828 289.803-.015-11.863-5.929-24.428-9.747-36.255-13.281-22.614-6.751-48.192-13.422-63.922-36.324-9.556 2.459-19.398 4.171-29.711 4.171-19.539 0-37.733-5.14-54.053-13.46-14.379 30.2-43.808 37.93-69.595 45.628-11.829 3.53-24.398 7.348-36.267 13.281z"/><path d="m431.125 431.966c-57.676 13.901-116.285 20.869-174.895 20.869-58.612 0-117.204-7.024-174.897-20.918-10.4 14.284-17.78 34.589-19.651 64.532-.529 8.457 6.554 15.551 15.03 15.551l359.008-.002c8.476 0 15.558-7.092 15.029-15.549-1.87-29.914-9.24-50.2-19.624-64.483z"/></g></svg>