<svg height="512" viewBox="0 0 512 512" width="512" xmlns="http://www.w3.org/2000/svg"><path d="m88 360h32v16h-32z"/><path d="m82.207 459.624a18.922 18.922 0 0 0 18.868 20.376c.159 0 .312-.02.47-.024a8.169 8.169 0 0 1 .9-.045 18.936 18.936 0 0 0 17.555-18.856v-69.075h-32.592z"/><path d="m288 448v-107.293l-16.977 31.124a8 8 0 0 1 -14.046 0l-45.726-83.831h-26.771a40.489 40.489 0 0 0 -28.693 12.087 38.344 38.344 0 0 0 -8.419 12.913l-11.368 28.307v97.193l37.456-69.641a70.053 70.053 0 0 1 10.4-19.443c.034-.057.063-.119.1-.175l.142-.249.018.01a8.225 8.225 0 0 1 .827-1 70.515 70.515 0 0 1 9.939-10.144l10.244 12.292a54.544 54.544 0 0 0 -6.976 76.733 8 8 0 0 1 1.85 5.117v48h128v-17.441l-33.569-6.714a8 8 0 0 1 -6.431-7.845z"/><path d="m184.152 349.023c.162-.21.321-.422.485-.631a8 8 0 0 0 -.509.618z"/><path d="m299.428 286.341a19.216 19.216 0 0 1 -11.428-17.541v-24.483a80.039 80.039 0 0 1 -48 0v24.483a19.216 19.216 0 0 1 -11.428 17.541l9.628 17.659h51.6z"/><path d="m156.466 279.558a56.358 56.358 0 0 1 28.014-7.558h36.32a3.243 3.243 0 0 0 3.2-3.2v-31.563a80.026 80.026 0 0 1 -40-69.237v-40a8 8 0 0 1 3.562-6.656 100.785 100.785 0 0 0 34.182-38.721l3.1-6.2a8 8 0 0 1 12.277-2.568l4.543 3.787a191.273 191.273 0 0 0 95.466 42.439 8 8 0 0 1 6.87 7.919v40a80.026 80.026 0 0 1 -40 69.237v31.563a3.243 3.243 0 0 0 3.2 3.2h36.24a55.951 55.951 0 0 1 28.1 7.607l.909-8.244a122.558 122.558 0 0 0 .752-12.8 114.657 114.657 0 0 0 -9.357-45.258 131.612 131.612 0 0 1 -10.392-58.193l1.359-27.662c.077-1.618.15-3.157.15-4.567a91.024 91.024 0 0 0 -90.961-90.883 90.941 90.941 0 0 0 -90.81 95.443l1.36 27.684c.086 2.206.17 4.4.17 6.633a129.949 129.949 0 0 1 -10.569 51.556 114.7 114.7 0 0 0 -8.6 58.021z"/><path d="m328 168v-33.18a207.224 207.224 0 0 1 -93.376-42.273 116.869 116.869 0 0 1 -34.624 39.637v35.816a64 64 0 0 0 128 0zm-100-8a12 12 0 1 1 12-12 12.013 12.013 0 0 1 -12 12zm36 40a24.027 24.027 0 0 1 -24-24h16a8 8 0 0 0 16 0h16a24.027 24.027 0 0 1 -24 24zm36-40a12 12 0 1 1 12-12 12.013 12.013 0 0 1 -12 12z"/><path d="m281.069 320h-34.138l17.069 31.293z"/><path d="m100.762 275.056a7.56 7.56 0 0 0 -4.929 10.717l7.323 14.648a8 8 0 0 1 -7.156 11.579h-28.669a56.284 56.284 0 0 1 -25.043-5.912l-7.973-3.988a1.526 1.526 0 0 0 -1.556.07 1.534 1.534 0 0 0 -.759 1.363v22.578a7.958 7.958 0 0 0 4.422 7.156l13.021 6.51a40.2 40.2 0 0 0 17.888 4.223h52.669v-38.459l-10.383-25.958a7.589 7.589 0 0 0 -8.855-4.527z"/><path d="m304 441.441 64 12.8v-95.682l-64-12.8z"/><path d="m426.082 468.542-16.445 3.289-.055.011h-.013c-.059.011-.118.015-.177.026-.149.026-.3.051-.449.068a16.39 16.39 0 0 0 14.097 8.064 14.308 14.308 0 0 0 2.528-.2 16.678 16.678 0 0 0 8.57-4.245 15.791 15.791 0 0 1 -8.056-7.015z"/><path d="m416 454.241 8-1.6v-21.7a18.357 18.357 0 0 1 15.387-18.164l27.172-4.528a18.361 18.361 0 0 1 13.441 2.989v-65.479l-64 12.8z"/><path d="m416.989 331.946a20.263 20.263 0 0 0 -15.365 12.054h5.584l35.165-7.033 37.627-7.526v-8z"/><path d="m471.146 424.574a2.4 2.4 0 0 0 -1.546-.574 2.621 2.621 0 0 0 -.413.034l-27.173 4.529a2.408 2.408 0 0 0 -2.014 2.382v29.735l32-5.334h.006l-.006-28.929a2.387 2.387 0 0 0 -.854-1.843z"/><path d="m372.263 300.377-.148-.152a39.635 39.635 0 0 0 -28.675-12.225h-26.691l-9.674 17.735 62.567 10.428a36.387 36.387 0 0 1 14.357 5.7l-3.437-8.677a37.073 37.073 0 0 0 -8.299-12.809z"/><path d="m367.012 331.946-63.012-10.503v8l36.4 7.28 36.4 7.279h5.584a20.263 20.263 0 0 0 -15.372-12.056z"/><path d="m384 360h16v96h-16z"/></svg>