<svg xmlns="http://www.w3.org/2000/svg" width="8.675" height="11.568" viewBox="0 0 8.675 11.568"><defs><style>.a{fill:#959595;}</style></defs><g transform="translate(-14 -8)">
<path class="a" d="M18.2,9.828,16.51,8.141a.482.482,0,0,0-.682,0L14.141,9.828a.482.482,0,0,0,.682.682l.864-.864v9.44a.482.482,0,0,0,.964,0V9.646l.864.864a.482.482,0,0,0,.682-.682Z" transform="translate(0 0)"/>
<path class="a" d="M36.2,17.058a.482.482,0,0,0-.682,0l-.864.864V8.482a.482.482,0,1,0-.964,0v9.44l-.864-.864a.482.482,0,0,0-.682.682l1.687,1.687a.482.482,0,0,0,.682,0L36.2,17.739A.482.482,0,0,0,36.2,17.058Z" transform="translate(-13.662 0)"/></g></svg>
